<?xml version="1.0" encoding="iso-8859-1"?>
<!-- Generator: Adobe Illustrator 19.0.0, SVG Export Plug-In . SVG Version: 6.00 Build 0)  -->
<svg version="1.1" id="Layer_1" xmlns="http://www.w3.org/2000/svg" xmlns:xlink="http://www.w3.org/1999/xlink" x="0px" y="0px"
	 viewBox="0 0 456 456" style="enable-background:new 0 0 456 456;" xml:space="preserve">
<g>
	<rect x="260" y="424" style="fill:#E0CBB5;" width="16" height="16"/>
	<rect x="182.4" y="424" style="fill:#E0CBB5;" width="14.4" height="16"/>
</g>
<g>
	<path style="fill:#42210B;" d="M432,71.2c-1.6-2.4-2.4-4.8-4-6.4C429.6,66.4,430.4,68.8,432,71.2z"/>
	<path style="fill:#42210B;" d="M412,152V88h-8v64H412z M420,72c4,0,8,3.2,8,8v80c0,4-4,8-8,8h-24c-4,0-8-4-8-8V80c0-4.8,4-8,8-8
		H420z"/>
	<path style="fill:#42210B;" d="M340,168c-13.6,0-24-11.2-24-24s10.4-24,24-24s24,11.2,24,24S353.6,168,340,168z M332,144
		c0,4,4,8,8,8s8-4,8-8s-4-8-8-8S332,140,332,144z"/>
</g>
<g>
	<path style="fill:#FFF8EF;" d="M435.2,78.4c0-0.8-0.8-1.6-0.8-2.4c-0.8-1.6-1.6-3.2-2.4-4.8c-0.8-2.4-2.4-4.8-4-6.4
		c-0.8-1.6-2.4-4-4-5.6c0-0.8-0.8-0.8-1.6-1.6c-0.8-1.6-2.4-3.2-4-4.8c0,0,0-0.8-0.8-0.8c-1.6-1.6-3.2-4-4.8-5.6
		c-0.8-1.6-2.4-2.4-4-4c-16-9.6-34.4-15.2-54.4-15.2h-0.8c-44,0-79.2,36.8-79.2,81.6V408h24V227.2c0-2.4,1.6-4.8,3.2-6.4
		c2.4-1.6,4.8-1.6,7.2-0.8c52,16,104-11.2,124.8-57.6c0.8-1.6,0.8-3.2,0.8-4.8V83.2C436,80.8,436,79.2,435.2,78.4z M340,168
		c-13.6,0-24-11.2-24-24c0-13.6,10.4-24,24-24s24,10.4,24,24C364,156.8,353.6,168,340,168z M428,160c0,4-4,8-8,8h-24c-4,0-8-4-8-8
		V80c0-4,4-8,8-8h24c4,0,8,4,8,8V160z"/>
	<rect x="276" y="424" style="fill:#FFF8EF;" width="24" height="16"/>
</g>
<path style="fill:#E0CBB5;" d="M355.2,28c-44,0.8-79.2,36.8-79.2,81.6V408h-16V97.6c0-44.8,35.2-81.6,79.2-81.6h0.8
	c26.4,0,51.2,10.4,70.4,27.2C394.4,33.6,376,28,356,28L355.2,28L355.2,28z"/>
<path style="fill:#42210B;" d="M300,440v-16h-24h-16v16h16H300z M303.2,220.8c2.4-1.6,4.8-1.6,7.2-0.8c52,15.2,104-11.2,124.8-57.6
	c0.8-1.6,0.8-3.2,0.8-4.8V83.2c0-1.6,0-3.2-0.8-4.8c0-0.8-0.8-1.6-0.8-2.4c-0.8-1.6-1.6-3.2-2.4-4.8c-1.6-2.4-2.4-4.8-4-6.4
	c-0.8-1.6-2.4-3.2-4-5.6c0-0.8-0.8-0.8-1.6-1.6c-0.8-1.6-2.4-3.2-4-4.8c0,0,0-0.8-0.8-0.8c-1.6-1.6-3.2-3.2-4.8-5.6
	c-1.6-1.6-2.4-2.4-4-4C391.2,26.4,366.4,16,340,16h-0.8c-44,0.8-79.2,36.8-79.2,81.6V408h16h24V227.2
	C300,224.8,301.6,222.4,303.2,220.8z M452,82.4v74.4c0,4-0.8,8-2.4,11.2c-22.4,51.2-77.6,81.6-133.6,69.6V448c0,4-4,8-8,8h-56
	c-4,0-8-4-8-8V97.6c0-52.8,42.4-96.8,95.2-97.6h0.8c47.2,0,90.4,28,109.6,71.2C451.2,75.2,452,78.4,452,82.4z"/>
<rect x="156" y="424" style="fill:#FFF8EF;" width="26.4" height="16"/>
<path style="fill:#42210B;" d="M116,152c4,0,8-4,8-8s-4-8-8-8s-8,4-8,8S112,152,116,152z M92,144c0-12.8,11.2-24,24-24
	s24,11.2,24,24s-11.2,24-24,24S92,156.8,92,144z"/>
<path style="fill:#E0CBB5;" d="M36,53.6C55.2,29.6,84.8,16,116,16h0.8C160,16.8,196,52.8,196,97.6V408h-14.4V112
	c0-44.8-35.2-81.6-79.2-81.6h-0.8C77.6,30.4,54.4,39.2,36,53.6z"/>
<path style="fill:#42210B;" d="M52,152V88h-8v64H52z M68,80v80c0,4-3.2,8-8,8H36c-4.8,0-8-4-8-8V80c0-4.8,3.2-8,8-8h24
	C64.8,72,68,75.2,68,80z"/>
<path style="fill:#FFF8EF;" d="M68,160V80c0-4.8-3.2-8-8-8H36c-4.8,0-8,3.2-8,8v80c0,4,3.2,8,8,8h24C64.8,168,68,164,68,160z
	 M92,144c0,12.8,11.2,24,24,24s24-11.2,24-24s-11.2-24-24-24S92,131.2,92,144z M145.6,219.2c-52,15.2-104-11.2-124.8-57.6
	c-0.8-0.8-0.8-2.4-0.8-4V83.2c0-1.6,0-3.2,0.8-4.8c0-0.8,0.8-1.6,0.8-2.4c0.8-1.6,1.6-3.2,2.4-4.8c0,0,0,0,0-0.8c2.4-4,4.8-8,7.2-12
	c1.6-0.8,3.2-2.4,4.8-4.8c18.4-15.2,41.6-24,66.4-24h0.8c43.2,0.8,79.2,36.8,79.2,81.6v296H156v-180c0-2.4-0.8-4.8-3.2-6.4
	C150.4,219.2,148,219.2,145.6,219.2z"/>
<path style="fill:#42210B;" d="M182.4,424H156v16h26.4H196v-16H182.4z M6.4,71.2C25.6,28,68.8,0,116,0h0.8
	C169.6,0.8,212,44.8,212,97.6V448c0,4-4,8-8,8h-56c-4,0-8-4-8-8V237.6C83.2,249.6,28.8,219.2,6.4,168c-1.6-3.2-2.4-6.4-2.4-10.4
	V83.2C4,78.4,4.8,75.2,6.4,71.2z M20.8,161.6c20.8,46.4,72.8,72.8,124.8,57.6c2.4-0.8,4.8,0,7.2,0.8c2.4,1.6,3.2,4,3.2,6.4V408h26.4
	H196V97.6c0-44.8-35.2-81.6-79.2-81.6H116c-31.2,0-60.8,14.4-80,37.6c-1.6,1.6-3.2,4-4,5.6c-2.4,4-4.8,8-7.2,12c0,0,0,0,0,0.8
	c-0.8,1.6-1.6,3.2-2.4,4.8c-0.8,0.8-0.8,1.6-0.8,2.4c-1.6,0-1.6,1.6-1.6,3.2v74.4C20,159.2,20,160.8,20.8,161.6z"/>
<g>
</g>
<g>
</g>
<g>
</g>
<g>
</g>
<g>
</g>
<g>
</g>
<g>
</g>
<g>
</g>
<g>
</g>
<g>
</g>
<g>
</g>
<g>
</g>
<g>
</g>
<g>
</g>
<g>
</g>
</svg>
