<?xml version="1.0" encoding="iso-8859-1"?>
<!-- Generator: Adobe Illustrator 19.0.0, SVG Export Plug-In . SVG Version: 6.00 Build 0)  -->
<svg version="1.1" id="Layer_1" xmlns="http://www.w3.org/2000/svg" xmlns:xlink="http://www.w3.org/1999/xlink" x="0px" y="0px"
	 viewBox="0 0 512 512" style="enable-background:new 0 0 512 512;" xml:space="preserve">
<path style="fill:#FFC033;" d="M395.13,0H116.87C89.266,0,66.783,22.483,66.783,50.087v411.826
	c0,27.603,22.483,50.087,50.087,50.087H395.13c27.603,0,50.087-22.483,50.087-50.087V50.087C445.217,22.483,422.734,0,395.13,0z"/>
<path style="fill:#F9A926;" d="M395.13,0H256v512h139.13c27.603,0,50.087-22.483,50.087-50.087V50.087
	C445.217,22.483,422.734,0,395.13,0z"/>
<path style="fill:#A6673A;" d="M256,445.217c-64.445,0-116.87-52.429-116.87-116.87s52.424-116.87,116.87-116.87
	s116.87,52.429,116.87,116.87S320.445,445.217,256,445.217z"/>
<path style="fill:#99522E;" d="M372.87,328.348c0-64.441-52.424-116.87-116.87-116.87v233.739
	C320.445,445.217,372.87,392.789,372.87,328.348z"/>
<path style="fill:#FFEFD9;" d="M256,244.87c-46.032,0-83.478,37.446-83.478,83.478s37.446,83.478,83.478,83.478
	s83.478-37.446,83.478-83.478S302.032,244.87,256,244.87z"/>
<path style="fill:#FFD9B3;" d="M339.478,328.348c0-46.032-37.446-83.478-83.478-83.478v166.957
	C302.032,411.826,339.478,374.38,339.478,328.348z"/>
<path style="fill:#A6673A;" d="M256,166.957c-27.619,0-50.087-22.468-50.087-50.087S228.381,66.783,256,66.783
	s50.087,22.468,50.087,50.087S283.619,166.957,256,166.957z"/>
<g>
	<path style="fill:#FFD9B3;" d="M445.217,133.565v33.391h-89.043c-9.239,0-16.696-7.457-16.696-16.696s7.456-16.696,16.696-16.696
		H445.217z"/>
	<path style="fill:#FFD9B3;" d="M445.217,66.783v33.391h-89.043c-9.239,0-16.696-7.457-16.696-16.696s7.456-16.696,16.696-16.696
		H445.217z"/>
</g>
<g>
	<path style="fill:#FFEFD9;" d="M172.522,83.478c0,9.238-7.456,16.696-16.696,16.696H66.783V66.783h89.043
		C165.065,66.783,172.522,74.24,172.522,83.478z"/>
	<path style="fill:#FFEFD9;" d="M172.522,150.261c0,9.238-7.456,16.696-16.696,16.696H66.783v-33.391h89.043
		C165.065,133.565,172.522,141.023,172.522,150.261z"/>
</g>
<path style="fill:#99522E;" d="M306.087,116.87c0-27.619-22.468-50.087-50.087-50.087v100.174
	C283.619,166.957,306.087,144.489,306.087,116.87z"/>
<path style="fill:#A6673A;" d="M256,378.435c-27.619,0-50.087-22.468-50.087-50.087s22.468-50.087,50.087-50.087
	s50.087,22.468,50.087,50.087S283.619,378.435,256,378.435z"/>
<path style="fill:#99522E;" d="M306.087,328.348c0-27.619-22.468-50.087-50.087-50.087v100.174
	C283.619,378.435,306.087,355.967,306.087,328.348z"/>
<g>
</g>
<g>
</g>
<g>
</g>
<g>
</g>
<g>
</g>
<g>
</g>
<g>
</g>
<g>
</g>
<g>
</g>
<g>
</g>
<g>
</g>
<g>
</g>
<g>
</g>
<g>
</g>
<g>
</g>
</svg>
